<?xml version="1.0" encoding="UTF-8" standalone="no"?>
<!DOCTYPE svg PUBLIC "-//W3C//DTD SVG 20010904//EN"
              "http://www.w3.org/TR/2001/REC-SVG-20010904/DTD/svg10.dtd">

<svg xmlns="http://www.w3.org/2000/svg"
     width="20.3444in" height="6.11111in"
     viewBox="0 0 1831 550">
  <path id="Oval"
        fill="#c9f4d9" stroke="none" stroke-width="1"
        d="M 513.00,25.14
           C 513.00,25.14 564.00,25.14 564.00,25.14
             564.00,25.14 584.00,26.00 584.00,26.00
             584.00,26.00 607.00,27.83 607.00,27.83
             607.00,27.83 635.00,30.17 635.00,30.17
             635.00,30.17 682.00,36.58 682.00,36.58
             760.24,48.72 853.82,75.35 921.00,117.68
             960.71,142.70 1000.89,175.86 1019.85,220.00
             1025.26,232.60 1030.84,250.24 1031.00,264.00
             1031.23,284.09 1031.22,294.36 1024.97,314.00
             1006.91,370.79 950.39,413.99 900.00,441.31
             830.33,479.07 748.18,501.00 670.00,512.27
             670.00,512.27 594.00,520.09 594.00,520.09
             594.00,520.09 584.00,521.00 584.00,521.00
             584.00,521.00 563.00,522.00 563.00,522.00
             563.00,522.00 491.00,522.00 491.00,522.00
             491.00,522.00 470.00,521.00 470.00,521.00
             470.00,521.00 447.00,519.17 447.00,519.17
             447.00,519.17 419.00,516.83 419.00,516.83
             419.00,516.83 372.00,510.42 372.00,510.42
             285.02,496.92 184.05,466.91 112.00,415.42
             79.65,392.30 49.69,363.02 33.72,326.00
             28.55,314.01 23.16,296.06 23.00,283.00
             22.77,262.91 22.78,252.64 29.03,233.00
             44.36,184.82 88.30,145.55 130.00,119.58
             208.45,70.72 309.73,43.66 401.00,32.28
             401.00,32.28 453.00,27.09 453.00,27.09
             453.00,27.09 470.00,26.00 470.00,26.00
             475.14,25.94 477.73,26.17 483.00,25.14
             483.00,25.14 513.00,25.14 513.00,25.14 Z" />
  <path id="ScriptS"
	fill="#2a219c" stroke="none" stroke-width="0"
        d="M 215.00,441.91
           C 215.00,441.91 288.00,447.09 288.00,447.09
             288.00,447.09 315.00,449.00 315.00,449.00
             315.00,449.00 337.00,450.00 337.00,450.00
             337.00,450.00 347.00,451.00 347.00,451.00
             347.00,451.00 359.00,451.00 359.00,451.00
             359.00,451.00 371.00,452.04 371.00,452.04
             371.00,452.04 384.00,452.04 384.00,452.04
             384.00,452.04 395.00,453.00 395.00,453.00
             395.00,453.00 416.00,453.00 416.00,453.00
             416.00,453.00 433.00,454.00 433.00,454.00
             433.00,454.00 476.00,454.00 476.00,454.00
             476.00,454.00 488.00,453.04 488.00,453.04
             488.00,453.04 503.00,453.04 503.00,453.04
             503.00,453.04 515.00,452.09 515.00,452.09
             515.00,452.09 558.00,448.58 558.00,448.58
             577.65,445.80 600.18,442.16 618.00,433.24
             626.22,429.13 636.30,421.40 638.47,412.00
             640.63,402.65 636.15,393.74 631.38,386.00
             621.27,369.59 600.16,351.53 585.00,339.40
             557.00,317.00 526.99,297.24 497.00,277.66
             447.65,245.43 397.79,214.26 350.00,179.71
             332.54,167.08 307.05,146.38 293.62,130.00
             285.44,120.03 278.69,109.27 279.01,96.00
             279.45,78.00 298.21,69.49 313.00,64.67
             335.50,57.33 358.62,55.07 382.00,52.83
             382.00,52.83 411.00,51.00 411.00,51.00
             411.00,51.00 428.00,50.00 428.00,50.00
             428.00,50.00 507.00,50.00 507.00,50.00
             507.00,50.00 522.00,51.00 522.00,51.00
             522.00,51.00 536.00,51.00 536.00,51.00
             536.00,51.00 547.00,51.96 547.00,51.96
             547.00,51.96 558.00,51.96 558.00,51.96
             558.00,51.96 580.00,53.00 580.00,53.00
             580.00,53.00 590.00,54.00 590.00,54.00
             590.00,54.00 600.00,54.00 600.00,54.00
             600.00,54.00 614.00,55.00 614.00,55.00
             614.00,55.00 624.00,55.91 624.00,55.91
             624.00,55.91 638.00,57.00 638.00,57.00
             638.00,57.00 648.00,57.00 648.00,57.00
             648.00,57.00 680.00,59.91 680.00,59.91
             680.00,59.91 762.00,66.83 762.00,66.83
             762.00,66.83 793.00,70.00 793.00,70.00
             793.00,70.00 765.00,69.00 765.00,69.00
             765.00,69.00 749.00,68.00 749.00,68.00
             749.00,68.00 732.00,67.00 732.00,67.00
             732.00,67.00 719.00,67.00 719.00,67.00
             719.00,67.00 705.00,66.00 705.00,66.00
             705.00,66.00 689.00,66.00 689.00,66.00
             689.00,66.00 673.00,65.00 673.00,65.00
             631.20,64.93 589.52,64.88 548.00,69.85
             528.85,72.13 507.69,75.74 490.00,83.59
             480.63,87.75 470.58,94.62 467.63,105.00
             464.44,116.23 474.24,130.89 481.13,139.00
             500.40,161.69 524.91,178.98 549.00,196.14
             549.00,196.14 617.00,240.42 617.00,240.42
             676.95,277.75 738.56,312.98 796.00,354.14
             814.02,367.06 838.42,385.96 852.20,403.00
             859.70,412.28 866.51,422.57 865.96,435.00
             865.24,451.32 848.47,459.41 835.00,464.00
             806.12,473.83 764.59,477.65 734.00,478.00
             734.00,478.00 719.00,479.00 719.00,479.00
             719.00,479.00 649.00,479.00 649.00,479.00
             649.00,479.00 634.00,478.00 634.00,478.00
             634.00,478.00 617.00,478.00 617.00,478.00
             617.00,478.00 604.00,477.00 604.00,477.00
             604.00,477.00 574.00,476.00 574.00,476.00
             574.00,476.00 556.00,475.00 556.00,475.00
             556.00,475.00 546.00,474.09 546.00,474.09
             546.00,474.09 522.00,472.91 522.00,472.91
             522.00,472.91 502.00,471.09 502.00,471.09
             502.00,471.09 330.00,456.17 330.00,456.17
             330.00,456.17 218.00,444.28 218.00,444.28
             218.00,444.28 196.00,442.04 196.00,442.04
             190.49,441.79 180.63,441.69 176.00,439.00
             176.00,439.00 215.00,441.91 215.00,441.91 Z" />
  <path id="ShakumantSoftware"
        fill="#044b97" stroke="blue" stroke-width="1"
        d="M 1152.00,110.00
           C 1152.00,110.00 1146.00,146.00 1146.00,146.00
             1154.40,141.35 1157.60,140.89 1167.00,141.00
             1184.76,141.22 1189.18,152.47 1189.00,168.00
             1189.00,168.00 1180.00,221.00 1180.00,221.00
             1180.00,221.00 1159.00,221.00 1159.00,221.00
             1159.00,221.00 1167.75,175.00 1167.75,175.00
             1168.79,169.01 1170.18,162.12 1163.91,158.30
             1157.29,154.27 1145.50,159.52 1142.51,166.04
             1142.51,166.04 1138.80,184.00 1138.80,184.00
             1138.80,184.00 1132.00,221.00 1132.00,221.00
             1132.00,221.00 1112.00,221.00 1112.00,221.00
             1112.00,221.00 1117.58,187.00 1117.58,187.00
             1117.58,187.00 1127.25,133.00 1127.25,133.00
             1127.25,133.00 1131.00,110.00 1131.00,110.00
             1131.00,110.00 1152.00,110.00 1152.00,110.00 Z
           M 1324.00,110.00
           C 1324.00,110.00 1315.00,167.00 1315.00,167.00
             1315.00,167.00 1339.00,145.96 1339.00,145.96
             1341.41,143.63 1345.31,137.86 1349.04,139.16
             1351.58,140.05 1358.80,146.17 1358.80,149.01
             1358.80,151.81 1353.95,156.08 1352.00,157.99
             1352.00,157.99 1328.00,180.00 1328.00,180.00
             1328.00,180.00 1346.88,203.00 1346.88,203.00
             1346.88,203.00 1360.00,221.00 1360.00,221.00
             1360.00,221.00 1343.00,221.00 1343.00,221.00
             1335.00,220.85 1333.72,216.90 1329.00,211.00
             1329.00,211.00 1312.00,190.00 1312.00,190.00
             1308.62,197.21 1306.12,212.72 1305.00,221.00
             1305.00,221.00 1286.00,221.00 1286.00,221.00
             1286.00,221.00 1289.92,195.00 1289.92,195.00
             1289.92,195.00 1299.25,140.00 1299.25,140.00
             1299.25,140.00 1304.00,110.00 1304.00,110.00
             1304.00,110.00 1324.00,110.00 1324.00,110.00 Z
           M 1059.00,204.68
           C 1067.59,206.17 1087.96,203.16 1082.32,189.96
             1078.47,180.97 1060.70,172.10 1052.79,161.00
             1044.53,149.42 1046.62,130.07 1057.17,120.47
             1064.30,113.98 1072.66,112.01 1082.00,112.00
             1082.00,112.00 1090.00,112.00 1090.00,112.00
             1097.14,112.09 1102.19,113.63 1109.00,115.00
             1109.00,115.00 1104.00,135.00 1104.00,135.00
             1104.00,135.00 1093.00,130.78 1093.00,130.78
             1084.95,128.39 1072.12,129.38 1069.35,139.00
             1067.21,146.44 1075.17,152.74 1080.00,157.05
             1091.18,167.02 1103.80,174.31 1104.00,191.00
             1104.04,194.93 1104.13,198.19 1102.95,202.00
             1096.90,221.42 1075.90,223.19 1059.00,223.00
             1054.69,222.95 1040.44,220.86 1038.03,217.30
             1036.22,214.62 1041.32,201.83 1042.00,198.00
             1048.51,199.59 1051.64,203.40 1059.00,204.68 Z
           M 1772.98,127.50
           C 1775.00,124.81 1790.19,119.89 1794.00,119.00
             1794.00,119.00 1789.00,143.00 1789.00,143.00
             1789.00,143.00 1809.00,143.00 1809.00,143.00
             1809.00,143.00 1807.00,158.00 1807.00,158.00
             1807.00,158.00 1785.00,158.00 1785.00,158.00
             1785.00,158.00 1777.46,193.00 1777.46,193.00
             1776.56,198.12 1776.81,203.97 1782.72,205.83
             1786.41,206.99 1794.62,203.68 1799.00,203.00
             1799.00,206.62 1799.83,216.84 1797.40,219.27
             1794.73,221.93 1786.65,221.99 1783.00,222.00
             1773.21,222.02 1764.77,222.95 1758.86,213.00
             1755.52,206.75 1756.99,196.68 1758.86,190.00
             1758.86,190.00 1766.00,158.00 1766.00,158.00
             1766.00,158.00 1757.00,158.00 1757.00,158.00
             1757.16,154.61 1758.00,145.20 1761.31,143.60
             1762.98,142.79 1767.97,143.00 1770.00,143.00
             1770.15,139.73 1771.17,129.92 1772.98,127.50 Z
           M 1238.00,220.45
           C 1232.95,222.24 1229.21,222.01 1224.00,222.00
             1214.55,221.99 1206.47,219.76 1201.36,211.00
             1198.19,205.55 1198.01,202.07 1198.15,196.00
             1198.15,196.00 1198.15,184.00 1198.15,184.00
             1199.97,172.41 1207.06,158.87 1216.00,151.32
             1229.87,139.64 1239.35,140.97 1256.00,141.00
             1259.87,141.01 1271.61,141.58 1274.19,144.72
             1275.28,146.40 1274.71,149.10 1274.19,151.00
             1274.19,151.00 1271.40,167.00 1271.40,167.00
             1269.66,175.72 1266.04,192.82 1266.00,201.00
             1265.97,209.18 1266.96,213.16 1268.00,221.00
             1259.75,221.00 1252.22,223.34 1249.00,214.00
             1245.33,216.98 1242.52,218.86 1238.00,220.45 Z
           M 1459.78,166.00
           C 1460.68,159.73 1460.48,158.20 1459.78,152.00
             1459.77,150.29 1459.10,146.80 1459.78,145.31
             1460.68,142.78 1464.67,142.48 1467.00,142.08
             1473.40,140.99 1477.07,139.24 1478.00,147.00
             1487.98,140.81 1491.74,140.95 1503.00,141.00
             1506.06,141.02 1507.97,140.98 1511.00,141.76
             1517.27,143.38 1519.42,146.03 1522.00,146.33
             1524.43,146.60 1529.29,143.66 1532.00,142.70
             1537.85,140.62 1540.99,140.99 1547.00,141.00
             1560.82,141.02 1568.82,146.26 1569.00,161.00
             1569.23,180.75 1560.88,201.90 1560.00,221.00
             1560.00,221.00 1539.00,221.00 1539.00,221.00
             1539.00,221.00 1547.41,175.00 1547.41,175.00
             1548.44,168.57 1549.80,161.87 1543.02,157.99
             1537.01,154.56 1526.97,160.23 1524.56,166.00
             1524.56,166.00 1520.58,187.00 1520.58,187.00
             1520.58,187.00 1515.00,221.00 1515.00,221.00
             1515.00,221.00 1494.00,221.00 1494.00,221.00
             1494.00,221.00 1502.39,175.00 1502.39,175.00
             1503.35,169.88 1505.65,162.47 1500.78,158.74
             1494.03,153.58 1483.47,159.66 1479.98,166.00
             1478.32,169.02 1477.13,179.02 1476.39,183.00
             1476.39,183.00 1470.00,221.00 1470.00,221.00
             1470.00,221.00 1450.00,221.00 1450.00,221.00
             1450.00,221.00 1459.78,166.00 1459.78,166.00 Z
           M 1617.00,220.45
           C 1611.95,222.24 1608.21,222.01 1603.00,222.00
             1593.55,221.99 1585.47,219.76 1580.36,211.00
             1577.19,205.55 1577.01,202.07 1577.15,196.00
             1577.15,196.00 1577.15,184.00 1577.15,184.00
             1578.97,172.41 1586.06,158.87 1595.00,151.32
             1608.87,139.64 1618.35,140.97 1635.00,141.00
             1638.87,141.01 1650.61,141.58 1653.19,144.72
             1654.28,146.40 1653.71,149.10 1653.19,151.00
             1653.19,151.00 1650.40,167.00 1650.40,167.00
             1648.66,175.72 1645.04,192.82 1645.00,201.00
             1644.97,209.18 1645.96,213.16 1647.00,221.00
             1638.75,221.00 1631.22,223.34 1628.00,214.00
             1624.33,216.98 1621.52,218.86 1617.00,220.45 Z
           M 1691.00,141.00
           C 1691.00,141.00 1692.00,148.00 1692.00,148.00
             1702.21,141.36 1706.15,140.94 1718.00,141.00
             1727.93,141.05 1736.58,144.52 1739.39,155.00
             1740.21,158.07 1740.04,163.67 1740.00,167.00
             1740.00,167.00 1731.00,221.00 1731.00,221.00
             1731.00,221.00 1710.00,221.00 1710.00,221.00
             1710.00,221.00 1718.39,177.00 1718.39,177.00
             1719.45,171.33 1721.59,163.94 1716.73,159.43
             1710.47,153.63 1696.80,158.39 1693.01,165.09
             1691.58,167.62 1689.68,180.37 1689.08,184.00
             1689.08,184.00 1683.00,221.00 1683.00,221.00
             1683.00,221.00 1662.00,221.00 1662.00,221.00
             1662.00,221.00 1667.61,191.00 1667.61,191.00
             1667.61,191.00 1672.91,161.00 1672.91,161.00
             1672.91,161.00 1672.00,143.00 1672.00,143.00
             1672.00,143.00 1691.00,141.00 1691.00,141.00 Z
           M 1397.00,143.00
           C 1397.00,143.00 1387.96,195.00 1387.96,195.00
             1387.11,210.02 1404.85,209.41 1414.61,197.00
             1419.04,191.37 1419.66,184.79 1421.00,178.00
             1421.00,178.00 1427.00,143.00 1427.00,143.00
             1427.00,143.00 1447.00,143.00 1447.00,143.00
             1447.00,143.00 1439.39,182.00 1439.39,182.00
             1439.39,182.00 1432.00,221.00 1432.00,221.00
             1432.00,221.00 1413.00,221.00 1413.00,221.00
             1413.00,221.00 1413.00,217.00 1413.00,217.00
             1401.52,221.87 1400.46,222.15 1388.00,222.00
             1371.99,221.80 1367.84,212.21 1368.00,198.00
             1368.00,198.00 1377.00,143.00 1377.00,143.00
             1377.00,143.00 1397.00,143.00 1397.00,143.00 Z
           M 1236.00,158.15
           C 1226.35,161.93 1220.22,174.31 1218.46,184.00
             1216.60,194.26 1216.59,207.56 1231.00,206.21
             1244.54,204.95 1249.38,183.99 1251.60,173.00
             1254.45,158.86 1255.77,157.32 1246.00,156.71
             1242.69,156.79 1239.12,156.92 1236.00,158.15 Z
           M 1615.00,158.15
           C 1605.35,161.93 1599.22,174.31 1597.46,184.00
             1595.60,194.26 1595.59,207.56 1610.00,206.21
             1623.54,204.95 1628.38,183.99 1630.60,173.00
             1633.45,158.86 1634.77,157.32 1625.00,156.71
             1621.69,156.79 1618.12,156.92 1615.00,158.15 Z
           M 1243.00,284.76
           C 1246.65,283.82 1250.26,283.98 1254.00,284.00
             1257.18,284.02 1263.89,283.89 1265.39,287.42
             1266.36,289.70 1263.47,299.69 1263.00,303.00
             1259.80,301.73 1255.03,299.68 1251.58,299.89
             1243.30,300.38 1239.10,309.96 1238.00,317.00
             1238.00,317.00 1256.00,317.00 1256.00,317.00
             1256.00,317.00 1255.00,332.00 1255.00,332.00
             1255.00,332.00 1235.00,332.00 1235.00,332.00
             1235.00,332.00 1230.08,362.00 1230.08,362.00
             1230.08,362.00 1224.80,393.00 1224.80,393.00
             1223.60,399.25 1222.96,405.29 1219.82,411.00
             1216.19,417.58 1210.11,422.51 1203.00,424.90
             1199.09,426.21 1196.03,426.00 1192.00,426.00
             1192.00,426.00 1189.00,413.00 1189.00,413.00
             1196.18,410.88 1200.98,406.19 1203.23,399.00
             1203.23,399.00 1208.42,371.00 1208.42,371.00
             1208.42,371.00 1215.00,332.00 1215.00,332.00
             1215.00,332.00 1205.00,332.00 1205.00,332.00
             1205.00,332.00 1207.00,317.00 1207.00,317.00
             1207.00,317.00 1218.00,317.00 1218.00,317.00
             1219.26,303.00 1228.91,288.39 1243.00,284.76 Z
           M 1059.00,378.68
           C 1067.59,380.17 1087.96,377.16 1082.32,363.96
             1078.47,354.97 1060.70,346.10 1052.79,335.00
             1044.53,323.42 1046.62,304.07 1057.17,294.47
             1064.30,287.98 1072.66,286.01 1082.00,286.00
             1082.00,286.00 1090.00,286.00 1090.00,286.00
             1097.14,286.09 1102.19,287.63 1109.00,289.00
             1109.00,289.00 1104.00,309.00 1104.00,309.00
             1104.00,309.00 1093.00,304.78 1093.00,304.78
             1084.95,302.39 1072.12,303.38 1069.35,313.00
             1067.21,320.44 1075.17,326.74 1080.00,331.05
             1091.18,341.02 1103.80,348.31 1104.00,365.00
             1104.04,368.93 1104.13,372.19 1102.95,376.00
             1096.90,395.42 1075.90,397.19 1059.00,397.00
             1054.69,396.95 1040.44,394.86 1038.03,391.30
             1036.22,388.62 1041.32,375.83 1042.00,372.00
             1048.51,373.59 1051.64,377.40 1059.00,378.68 Z
           M 1283.98,301.50
           C 1286.00,298.81 1301.19,293.89 1305.00,293.00
             1305.00,293.00 1300.00,317.00 1300.00,317.00
             1300.00,317.00 1320.00,317.00 1320.00,317.00
             1320.00,317.00 1318.00,332.00 1318.00,332.00
             1318.00,332.00 1296.00,332.00 1296.00,332.00
             1296.00,332.00 1288.46,367.00 1288.46,367.00
             1287.56,372.12 1287.81,377.97 1293.72,379.83
             1297.41,380.99 1305.62,377.68 1310.00,377.00
             1310.00,380.62 1310.83,390.84 1308.40,393.27
             1305.73,395.93 1297.65,395.99 1294.00,396.00
             1284.21,396.02 1275.77,396.95 1269.86,387.00
             1266.52,380.75 1267.99,370.68 1269.86,364.00
             1269.86,364.00 1277.00,332.00 1277.00,332.00
             1277.00,332.00 1268.00,332.00 1268.00,332.00
             1268.16,328.61 1269.00,319.20 1272.31,317.60
             1273.98,316.79 1278.97,317.00 1281.00,317.00
             1281.15,313.73 1282.17,303.92 1283.98,301.50 Z
           M 1179.00,319.13
           C 1191.29,326.93 1191.15,337.17 1191.00,350.00
             1190.87,361.05 1186.54,372.47 1179.53,381.00
             1169.11,393.67 1157.43,396.18 1142.00,396.00
             1128.65,395.84 1118.22,389.45 1114.76,376.00
             1113.69,371.86 1113.99,366.36 1114.00,362.00
             1114.03,339.83 1127.97,320.37 1150.00,315.46
             1158.66,314.27 1171.45,314.34 1179.00,319.13 Z
           M 1483.00,394.45
           C 1477.95,396.24 1474.21,396.01 1469.00,396.00
             1459.55,395.99 1451.47,393.76 1446.36,385.00
             1443.19,379.55 1443.01,376.07 1443.15,370.00
             1443.15,370.00 1443.15,358.00 1443.15,358.00
             1444.97,346.41 1452.06,332.87 1461.00,325.32
             1474.87,313.64 1484.35,314.97 1501.00,315.00
             1504.87,315.01 1516.61,315.58 1519.19,318.72
             1520.28,320.40 1519.71,323.10 1519.19,325.00
             1519.19,325.00 1516.40,341.00 1516.40,341.00
             1514.66,349.72 1511.04,366.82 1511.00,375.00
             1510.97,383.18 1511.96,387.16 1513.00,395.00
             1504.75,395.00 1497.22,397.34 1494.00,388.00
             1490.33,390.98 1487.52,392.86 1483.00,394.45 Z
           M 1588.00,315.00
           C 1590.28,315.03 1594.32,314.83 1595.33,317.43
             1596.22,319.70 1591.96,332.06 1591.00,335.00
             1586.74,333.44 1582.73,330.58 1578.00,330.98
             1570.99,331.56 1564.18,339.00 1561.33,345.00
             1558.77,350.37 1557.66,359.00 1556.58,365.00
             1556.58,365.00 1551.00,395.00 1551.00,395.00
             1551.00,395.00 1532.00,395.00 1532.00,395.00
             1532.00,395.00 1546.00,317.00 1546.00,317.00
             1546.00,317.00 1566.00,317.00 1566.00,317.00
             1566.00,317.00 1565.00,323.00 1565.00,323.00
             1573.66,315.70 1576.99,314.85 1588.00,315.00 Z
           M 1655.26,392.19
           C 1653.31,394.14 1646.78,395.35 1644.00,395.71
             1632.93,397.16 1620.06,396.63 1611.01,389.47
             1600.49,381.15 1599.98,371.16 1600.00,359.00
             1600.04,333.95 1618.95,315.04 1644.00,315.00
             1655.03,314.98 1669.83,315.24 1674.15,328.00
             1675.07,330.72 1675.06,334.14 1674.99,337.00
             1674.35,363.13 1637.99,366.03 1619.00,361.00
             1619.23,363.80 1619.60,367.41 1620.70,370.00
             1621.54,371.98 1622.60,373.37 1624.11,374.90
             1635.38,386.31 1646.92,377.07 1658.00,373.00
             1657.99,376.62 1657.53,389.92 1655.26,392.19 Z
           M 1349.00,317.00
           C 1349.00,317.00 1356.00,358.00 1356.00,358.00
             1356.00,358.00 1372.81,330.00 1372.81,330.00
             1372.81,330.00 1381.38,318.02 1381.38,318.02
             1381.38,318.02 1390.00,317.00 1390.00,317.00
             1391.81,325.01 1399.59,351.34 1403.00,358.00
             1404.83,351.60 1415.04,334.31 1418.76,327.00
             1421.92,320.77 1422.56,317.13 1430.00,317.00
             1430.00,317.00 1444.00,317.00 1444.00,317.00
             1442.32,322.77 1436.39,332.30 1433.31,338.00
             1433.31,338.00 1411.74,378.00 1411.74,378.00
             1409.93,381.50 1403.68,394.03 1400.62,395.43
             1398.97,396.18 1394.93,396.00 1393.00,396.00
             1393.00,396.00 1381.00,353.00 1381.00,353.00
             1375.25,357.87 1365.23,375.65 1360.33,383.00
             1358.38,385.93 1353.72,394.14 1350.79,395.40
             1349.00,396.17 1345.05,396.00 1343.00,396.00
             1343.00,396.00 1329.00,317.00 1329.00,317.00
             1329.00,317.00 1349.00,317.00 1349.00,317.00 Z
           M 1133.92,360.00
           C 1133.23,369.98 1134.22,380.32 1147.00,380.43
             1163.05,380.56 1169.95,364.74 1171.07,351.00
             1171.97,339.93 1171.08,331.68 1158.00,330.71
             1141.86,331.20 1134.90,345.68 1133.92,360.00 Z
           M 1481.00,332.15
           C 1471.35,335.93 1465.22,348.31 1463.46,358.00
             1461.60,368.26 1461.59,381.56 1476.00,380.21
             1489.54,378.95 1494.38,357.99 1496.60,347.00
             1499.45,332.86 1500.77,331.32 1491.00,330.71
             1487.69,330.79 1484.12,330.92 1481.00,332.15 Z
           M 1638.00,347.04
           C 1643.81,346.60 1654.42,345.17 1655.63,338.00
             1655.91,336.36 1655.49,334.70 1654.40,333.43
             1652.41,331.11 1648.83,331.00 1646.00,330.76
             1635.86,329.88 1626.12,337.01 1624.00,347.04
             1624.00,347.04 1638.00,347.04 1638.00,347.04 Z" />
</svg>
