<?xml version="1.0" encoding="UTF-8" standalone="no"?>
<!DOCTYPE svg PUBLIC "-//W3C//DTD SVG 20010904//EN"
              "http://www.w3.org/TR/2001/REC-SVG-20010904/DTD/svg10.dtd">

<svg xmlns="http://www.w3.org/2000/svg"
     width="11.66in" height="6.11111in"
     viewBox="0 0 1050 550">
  <path id="Oval"
        fill="#c9f4d9" stroke="none" stroke-width="1"
        d="M 513.00,25.14
           C 513.00,25.14 564.00,25.14 564.00,25.14
             564.00,25.14 584.00,26.00 584.00,26.00
             584.00,26.00 607.00,27.83 607.00,27.83
             607.00,27.83 635.00,30.17 635.00,30.17
             635.00,30.17 682.00,36.58 682.00,36.58
             760.24,48.72 853.82,75.35 921.00,117.68
             960.71,142.70 1000.89,175.86 1019.85,220.00
             1025.26,232.60 1030.84,250.24 1031.00,264.00
             1031.23,284.09 1031.22,294.36 1024.97,314.00
             1006.91,370.79 950.39,413.99 900.00,441.31
             830.33,479.07 748.18,501.00 670.00,512.27
             670.00,512.27 594.00,520.09 594.00,520.09
             594.00,520.09 584.00,521.00 584.00,521.00
             584.00,521.00 563.00,522.00 563.00,522.00
             563.00,522.00 491.00,522.00 491.00,522.00
             491.00,522.00 470.00,521.00 470.00,521.00
             470.00,521.00 447.00,519.17 447.00,519.17
             447.00,519.17 419.00,516.83 419.00,516.83
             419.00,516.83 372.00,510.42 372.00,510.42
             285.02,496.92 184.05,466.91 112.00,415.42
             79.65,392.30 49.69,363.02 33.72,326.00
             28.55,314.01 23.16,296.06 23.00,283.00
             22.77,262.91 22.78,252.64 29.03,233.00
             44.36,184.82 88.30,145.55 130.00,119.58
             208.45,70.72 309.73,43.66 401.00,32.28
             401.00,32.28 453.00,27.09 453.00,27.09
             453.00,27.09 470.00,26.00 470.00,26.00
             475.14,25.94 477.73,26.17 483.00,25.14
             483.00,25.14 513.00,25.14 513.00,25.14 Z" />
  <path id="ScriptS"
	fill="#2a219c" stroke="none" stroke-width="0"
        d="M 215.00,441.91
           C 215.00,441.91 288.00,447.09 288.00,447.09
             288.00,447.09 315.00,449.00 315.00,449.00
             315.00,449.00 337.00,450.00 337.00,450.00
             337.00,450.00 347.00,451.00 347.00,451.00
             347.00,451.00 359.00,451.00 359.00,451.00
             359.00,451.00 371.00,452.04 371.00,452.04
             371.00,452.04 384.00,452.04 384.00,452.04
             384.00,452.04 395.00,453.00 395.00,453.00
             395.00,453.00 416.00,453.00 416.00,453.00
             416.00,453.00 433.00,454.00 433.00,454.00
             433.00,454.00 476.00,454.00 476.00,454.00
             476.00,454.00 488.00,453.04 488.00,453.04
             488.00,453.04 503.00,453.04 503.00,453.04
             503.00,453.04 515.00,452.09 515.00,452.09
             515.00,452.09 558.00,448.58 558.00,448.58
             577.65,445.80 600.18,442.16 618.00,433.24
             626.22,429.13 636.30,421.40 638.47,412.00
             640.63,402.65 636.15,393.74 631.38,386.00
             621.27,369.59 600.16,351.53 585.00,339.40
             557.00,317.00 526.99,297.24 497.00,277.66
             447.65,245.43 397.79,214.26 350.00,179.71
             332.54,167.08 307.05,146.38 293.62,130.00
             285.44,120.03 278.69,109.27 279.01,96.00
             279.45,78.00 298.21,69.49 313.00,64.67
             335.50,57.33 358.62,55.07 382.00,52.83
             382.00,52.83 411.00,51.00 411.00,51.00
             411.00,51.00 428.00,50.00 428.00,50.00
             428.00,50.00 507.00,50.00 507.00,50.00
             507.00,50.00 522.00,51.00 522.00,51.00
             522.00,51.00 536.00,51.00 536.00,51.00
             536.00,51.00 547.00,51.96 547.00,51.96
             547.00,51.96 558.00,51.96 558.00,51.96
             558.00,51.96 580.00,53.00 580.00,53.00
             580.00,53.00 590.00,54.00 590.00,54.00
             590.00,54.00 600.00,54.00 600.00,54.00
             600.00,54.00 614.00,55.00 614.00,55.00
             614.00,55.00 624.00,55.91 624.00,55.91
             624.00,55.91 638.00,57.00 638.00,57.00
             638.00,57.00 648.00,57.00 648.00,57.00
             648.00,57.00 680.00,59.91 680.00,59.91
             680.00,59.91 762.00,66.83 762.00,66.83
             762.00,66.83 793.00,70.00 793.00,70.00
             793.00,70.00 765.00,69.00 765.00,69.00
             765.00,69.00 749.00,68.00 749.00,68.00
             749.00,68.00 732.00,67.00 732.00,67.00
             732.00,67.00 719.00,67.00 719.00,67.00
             719.00,67.00 705.00,66.00 705.00,66.00
             705.00,66.00 689.00,66.00 689.00,66.00
             689.00,66.00 673.00,65.00 673.00,65.00
             631.20,64.93 589.52,64.88 548.00,69.85
             528.85,72.13 507.69,75.74 490.00,83.59
             480.63,87.75 470.58,94.62 467.63,105.00
             464.44,116.23 474.24,130.89 481.13,139.00
             500.40,161.69 524.91,178.98 549.00,196.14
             549.00,196.14 617.00,240.42 617.00,240.42
             676.95,277.75 738.56,312.98 796.00,354.14
             814.02,367.06 838.42,385.96 852.20,403.00
             859.70,412.28 866.51,422.57 865.96,435.00
             865.24,451.32 848.47,459.41 835.00,464.00
             806.12,473.83 764.59,477.65 734.00,478.00
             734.00,478.00 719.00,479.00 719.00,479.00
             719.00,479.00 649.00,479.00 649.00,479.00
             649.00,479.00 634.00,478.00 634.00,478.00
             634.00,478.00 617.00,478.00 617.00,478.00
             617.00,478.00 604.00,477.00 604.00,477.00
             604.00,477.00 574.00,476.00 574.00,476.00
             574.00,476.00 556.00,475.00 556.00,475.00
             556.00,475.00 546.00,474.09 546.00,474.09
             546.00,474.09 522.00,472.91 522.00,472.91
             522.00,472.91 502.00,471.09 502.00,471.09
             502.00,471.09 330.00,456.17 330.00,456.17
             330.00,456.17 218.00,444.28 218.00,444.28
             218.00,444.28 196.00,442.04 196.00,442.04
             190.49,441.79 180.63,441.69 176.00,439.00
             176.00,439.00 215.00,441.91 215.00,441.91 Z" />
</svg>
